<?xml version="1.0" standalone="no"?>
<svg xmlns:xlink="http://www.w3.org/1999/xlink" id="wave" style="transform:rotate(0deg); transition: 0.3s" viewBox="0 0 1440 100" version="1.1" xmlns="http://www.w3.org/2000/svg"><defs><linearGradient id="sw-gradient-0" x1="0" x2="0" y1="1" y2="0"><stop stop-color="rgba(255, 177, 100, 1)" offset="0%"/><stop stop-color="rgba(255, 177, 100, 1)" offset="100%"/></linearGradient></defs><path style="transform:translate(0, 0px); opacity:1" fill="url(#sw-gradient-0)" d="M0,60L24,53.3C48,47,96,33,144,30C192,27,240,33,288,36.7C336,40,384,40,432,38.3C480,37,528,33,576,38.3C624,43,672,57,720,56.7C768,57,816,43,864,38.3C912,33,960,37,1008,41.7C1056,47,1104,53,1152,55C1200,57,1248,53,1296,46.7C1344,40,1392,30,1440,25C1488,20,1536,20,1584,25C1632,30,1680,40,1728,41.7C1776,43,1824,37,1872,31.7C1920,27,1968,23,2016,20C2064,17,2112,13,2160,25C2208,37,2256,63,2304,61.7C2352,60,2400,30,2448,26.7C2496,23,2544,47,2592,53.3C2640,60,2688,50,2736,43.3C2784,37,2832,33,2880,30C2928,27,2976,23,3024,20C3072,17,3120,13,3168,11.7C3216,10,3264,10,3312,13.3C3360,17,3408,23,3432,26.7L3456,30L3456,100L3432,100C3408,100,3360,100,3312,100C3264,100,3216,100,3168,100C3120,100,3072,100,3024,100C2976,100,2928,100,2880,100C2832,100,2784,100,2736,100C2688,100,2640,100,2592,100C2544,100,2496,100,2448,100C2400,100,2352,100,2304,100C2256,100,2208,100,2160,100C2112,100,2064,100,2016,100C1968,100,1920,100,1872,100C1824,100,1776,100,1728,100C1680,100,1632,100,1584,100C1536,100,1488,100,1440,100C1392,100,1344,100,1296,100C1248,100,1200,100,1152,100C1104,100,1056,100,1008,100C960,100,912,100,864,100C816,100,768,100,720,100C672,100,624,100,576,100C528,100,480,100,432,100C384,100,336,100,288,100C240,100,192,100,144,100C96,100,48,100,24,100L0,100Z"/></svg>