<?xml version="1.0" standalone="no"?>
<svg xmlns:xlink="http://www.w3.org/1999/xlink" id="wave" style="transform:rotate(180deg); transition: 0.3s" viewBox="0 0 1440 100" version="1.1" xmlns="http://www.w3.org/2000/svg"><defs><linearGradient id="sw-gradient-0" x1="0" x2="0" y1="1" y2="0"><stop stop-color="rgba(255, 177, 100, 1)" offset="0%"/><stop stop-color="rgba(255, 177, 100, 1)" offset="100%"/></linearGradient></defs><path style="transform:translate(0, 0px); opacity:1" fill="url(#sw-gradient-0)" d="M0,70L24,60C48,50,96,30,144,21.7C192,13,240,17,288,26.7C336,37,384,53,432,53.3C480,53,528,37,576,33.3C624,30,672,40,720,41.7C768,43,816,37,864,40C912,43,960,57,1008,51.7C1056,47,1104,23,1152,25C1200,27,1248,53,1296,58.3C1344,63,1392,47,1440,43.3C1488,40,1536,50,1584,50C1632,50,1680,40,1728,40C1776,40,1824,50,1872,46.7C1920,43,1968,27,2016,28.3C2064,30,2112,50,2160,48.3C2208,47,2256,23,2304,13.3C2352,3,2400,7,2448,13.3C2496,20,2544,30,2592,36.7C2640,43,2688,47,2736,41.7C2784,37,2832,23,2880,30C2928,37,2976,63,3024,65C3072,67,3120,43,3168,41.7C3216,40,3264,60,3312,63.3C3360,67,3408,53,3432,46.7L3456,40L3456,100L3432,100C3408,100,3360,100,3312,100C3264,100,3216,100,3168,100C3120,100,3072,100,3024,100C2976,100,2928,100,2880,100C2832,100,2784,100,2736,100C2688,100,2640,100,2592,100C2544,100,2496,100,2448,100C2400,100,2352,100,2304,100C2256,100,2208,100,2160,100C2112,100,2064,100,2016,100C1968,100,1920,100,1872,100C1824,100,1776,100,1728,100C1680,100,1632,100,1584,100C1536,100,1488,100,1440,100C1392,100,1344,100,1296,100C1248,100,1200,100,1152,100C1104,100,1056,100,1008,100C960,100,912,100,864,100C816,100,768,100,720,100C672,100,624,100,576,100C528,100,480,100,432,100C384,100,336,100,288,100C240,100,192,100,144,100C96,100,48,100,24,100L0,100Z"/></svg>