<svg xmlns:xlink="http://www.w3.org/1999/xlink" id="wave" style="transform:rotate(0deg); transition: 0.3s" viewBox="0 0 1440 120" version="1.1" xmlns="http://www.w3.org/2000/svg"><defs><linearGradient id="sw-gradient-0" x1="0" x2="0" y1="1" y2="0"><stop stop-color="rgba(243, 106, 62, 1)" offset="0%"/><stop stop-color="rgba(255, 179, 11, 1)" offset="100%"/></linearGradient></defs><path style="transform:translate(0, 0px); opacity:1" fill="url(#sw-gradient-0)" d="M0,96L10.9,90C21.8,84,44,72,65,56C87.3,40,109,20,131,10C152.7,0,175,0,196,14C218.2,28,240,56,262,60C283.6,64,305,44,327,30C349.1,16,371,8,393,10C414.5,12,436,24,458,28C480,32,502,28,524,32C545.5,36,567,48,589,58C610.9,68,633,76,655,72C676.4,68,698,52,720,40C741.8,28,764,20,785,18C807.3,16,829,20,851,28C872.7,36,895,48,916,56C938.2,64,960,68,982,70C1003.6,72,1025,72,1047,64C1069.1,56,1091,40,1113,46C1134.5,52,1156,80,1178,92C1200,104,1222,100,1244,82C1265.5,64,1287,32,1309,20C1330.9,8,1353,16,1375,24C1396.4,32,1418,40,1440,46C1461.8,52,1484,56,1505,52C1527.3,48,1549,36,1560,30L1570.9,24L1570.9,120L1560,120C1549.1,120,1527,120,1505,120C1483.6,120,1462,120,1440,120C1418.2,120,1396,120,1375,120C1352.7,120,1331,120,1309,120C1287.3,120,1265,120,1244,120C1221.8,120,1200,120,1178,120C1156.4,120,1135,120,1113,120C1090.9,120,1069,120,1047,120C1025.5,120,1004,120,982,120C960,120,938,120,916,120C894.5,120,873,120,851,120C829.1,120,807,120,785,120C763.6,120,742,120,720,120C698.2,120,676,120,655,120C632.7,120,611,120,589,120C567.3,120,545,120,524,120C501.8,120,480,120,458,120C436.4,120,415,120,393,120C370.9,120,349,120,327,120C305.5,120,284,120,262,120C240,120,218,120,196,120C174.5,120,153,120,131,120C109.1,120,87,120,65,120C43.6,120,22,120,11,120L0,120Z"/></svg>