<svg id="Capa_1" enable-background="new 0 0 512 512" height="512" viewBox="0 0 512 512" width="512" xmlns="http://www.w3.org/2000/svg"><g><g><path d="m376 271h-240c-8.291 0-15-6.709-15-15v-241c0-8.291 6.709-15 15-15h240c8.291 0 15 6.709 15 15v241c0 8.291-6.709 15-15 15z" fill="#ff9580"/></g><path d="m256 271h120c8.291 0 15-6.709 15-15v-241c0-8.291-6.709-15-15-15h-120z" fill="#f66"/><g id="Alphabet_Blocks_1_"><g><path d="m256 256 30 120-30 136h-241c-8.401 0-15-6.601-15-15v-226c0-8.401 6.599-15 15-15z" fill="#9df"/></g><path d="m121 256h120 15v15 226 15c-7.5 0-15 0-15 0h-120s0-1.122 0-3.217c0-29.555 0-252.783 0-252.783z" fill="#66b3ff"/><g><path d="m329.418 174.291-60-120c-5.389-10.742-21.488-10.66-26.836 0l-60 120c-3.691 7.412-.703 16.421 6.709 20.127 7.58 3.739 16.469.586 20.127-6.709l10.854-21.709h71.455l10.854 21.709c3.654 7.288 12.542 10.45 20.127 6.709 7.413-3.706 10.401-12.715 6.71-20.127zm-94.146-38.291 20.728-41.455 20.728 41.455z" fill="#f0f7ff"/><path d="m136 316h-60c-8.291 0-15 6.709-15 15 0 3.256 0 124.455 0 120 0 8.291 6.709 15 15 15h60c24.814 0 45-20.186 45-45 0-11.567-4.508-22.02-11.704-30 7.196-7.98 11.704-18.433 11.704-30 0-24.814-20.186-45-45-45zm-45 30h45c8.262 0 15 6.724 15 15s-6.738 15-15 15h-45zm45 90h-45v-30h45c8.262 0 15 6.724 15 15s-6.738 15-15 15z" fill="#f0f7ff"/><path d="m136 316h-15v30h15c8.262 0 15 6.724 15 15s-6.738 15-15 15h-15v30h15c8.262 0 15 6.724 15 15s-6.738 15-15 15h-15v30h15c24.814 0 45-20.186 45-45 0-11.567-4.508-22.02-11.704-30 7.196-7.98 11.704-18.433 11.704-30 0-24.814-20.186-45-45-45z" fill="#dfe7f4"/></g></g><path d="m497 256h-241v256h241c8.401 0 15-6.601 15-15v-226c0-8.401-6.599-15-15-15z" fill="#ffe14d"/><path d="m377 512h120c8.291 0 15-6.709 15-15v-226c0-8.291-6.709-15-15-15h-120z" fill="#fb3"/><g><path d="m391 466c-41.367 0-75-33.647-75-75s33.633-75 75-75c20.068 0 38.906 7.808 53.057 21.987 5.83 5.859 5.83 15.366-.029 21.211-5.859 5.83-15.381 5.859-21.24-.029-8.468-8.496-19.747-13.169-31.788-13.169-24.814 0-45 20.186-45 45s20.186 45 45 45c12.041 0 23.32-4.673 31.787-13.169 5.859-5.889 15.381-5.859 21.24-.029 5.859 5.845 5.859 15.352.029 21.211-14.15 14.179-32.988 21.987-53.056 21.987z" fill="#f0f7ff"/></g><g><g><g><path d="m444.057 444.013c5.83-5.859 5.83-15.366-.029-21.211-5.859-5.83-15.381-5.859-21.24.029-8.468 8.496-19.747 13.169-31.788 13.169-4.887 0-9.591-.794-14-2.241v30.911c4.539.86 9.214 1.33 14 1.33 20.068 0 38.906-7.808 53.057-21.987z" fill="#dfe7f4"/></g><g><path d="m391 316c-4.786 0-9.461.469-14 1.33v30.911c4.409-1.447 9.113-2.241 14-2.241 12.041 0 23.32 4.673 31.787 13.169 5.859 5.889 15.381 5.859 21.24.029 5.859-5.845 5.859-15.352.029-21.211-14.15-14.179-32.988-21.987-53.056-21.987z" fill="#dfe7f4"/></g></g></g><path d="m302.582 187.709c3.654 7.288 12.542 10.45 20.127 6.709 7.412-3.706 10.4-12.715 6.709-20.127l-60-120c-2.692-5.367-8.057-8.027-13.418-8.022v48.276l20.728 41.455h-20.728v30h35.728z" fill="#dfe7f4"/></g></svg>